<svg viewBox="0 0 64 64" xml:space="preserve" xmlns="http://www.w3.org/2000/svg"><path d="M48 39.26a8.3 8.3 0 0 0-6.033 2.596L24.23 33.172c.061-.408.103-.821.103-1.246 0-.414-.04-.818-.098-1.215l17.711-8.589A8.302 8.302 0 0 0 48 24.741a8.333 8.333 0 1 0-8.333-8.333c0 .414.04.817.098 1.215l-17.711 8.589A8.3 8.3 0 0 0 16 23.593a8.333 8.333 0 0 0-8.333 8.333A8.332 8.332 0 0 0 16 40.259a8.3 8.3 0 0 0 6.033-2.596l17.737 8.684a8.378 8.378 0 0 0-.103 1.246c0 4.603 3.731 8.333 8.333 8.333s8.333-3.73 8.333-8.333A8.333 8.333 0 0 0 48 39.26z" fill="#ffffff" class="fill-000000"></path></svg>